<mxfile host="Electron" agent="Mozilla/5.0 (Windows NT 10.0; Win64; x64) AppleWebKit/537.36 (KHTML, like Gecko) draw.io/26.2.15 Chrome/134.0.6998.205 Electron/35.2.1 Safari/537.36" version="26.2.15">
  <diagram name="Страница — 1" id="5eU42EdMswvOD5UyX4VR">
    <mxGraphModel dx="1554" dy="914" grid="1" gridSize="10" guides="1" tooltips="1" connect="1" arrows="1" fold="1" page="1" pageScale="1" pageWidth="827" pageHeight="1169" math="0" shadow="0">
      <root>
        <mxCell id="0" />
        <mxCell id="1" parent="0" />
        <mxCell id="El3InNLgVGE8vZLJ8Fgj-1" value="Ввод числа (int)" style="rounded=0;whiteSpace=wrap;html=1;fontStyle=2" vertex="1" parent="1">
          <mxGeometry x="270" y="180" width="120" height="60" as="geometry" />
        </mxCell>
        <mxCell id="El3InNLgVGE8vZLJ8Fgj-2" value="Преобразование в римское число" style="rounded=0;whiteSpace=wrap;html=1;fontStyle=2" vertex="1" parent="1">
          <mxGeometry x="270" y="280" width="120" height="60" as="geometry" />
        </mxCell>
        <mxCell id="El3InNLgVGE8vZLJ8Fgj-3" value="Сохранениет в файл" style="rounded=0;whiteSpace=wrap;html=1;fontStyle=2" vertex="1" parent="1">
          <mxGeometry x="270" y="380" width="120" height="60" as="geometry" />
        </mxCell>
        <mxCell id="El3InNLgVGE8vZLJ8Fgj-4" value="Подключение к TCP серверу" style="rounded=0;whiteSpace=wrap;html=1;fontStyle=2" vertex="1" parent="1">
          <mxGeometry x="270" y="480" width="120" height="60" as="geometry" />
        </mxCell>
        <mxCell id="El3InNLgVGE8vZLJ8Fgj-5" value="Отправка файла" style="rounded=0;whiteSpace=wrap;html=1;fontStyle=2" vertex="1" parent="1">
          <mxGeometry x="270" y="585" width="120" height="60" as="geometry" />
        </mxCell>
        <mxCell id="El3InNLgVGE8vZLJ8Fgj-6" value="" style="endArrow=none;html=1;rounded=0;entryX=0.5;entryY=1;entryDx=0;entryDy=0;exitX=0.5;exitY=0;exitDx=0;exitDy=0;" edge="1" parent="1" source="El3InNLgVGE8vZLJ8Fgj-2" target="El3InNLgVGE8vZLJ8Fgj-1">
          <mxGeometry width="50" height="50" relative="1" as="geometry">
            <mxPoint x="100" y="260" as="sourcePoint" />
            <mxPoint x="150" y="210" as="targetPoint" />
          </mxGeometry>
        </mxCell>
        <mxCell id="El3InNLgVGE8vZLJ8Fgj-7" value="" style="endArrow=none;html=1;rounded=0;entryX=0.5;entryY=1;entryDx=0;entryDy=0;exitX=0.5;exitY=0;exitDx=0;exitDy=0;" edge="1" parent="1" source="El3InNLgVGE8vZLJ8Fgj-3" target="El3InNLgVGE8vZLJ8Fgj-2">
          <mxGeometry width="50" height="50" relative="1" as="geometry">
            <mxPoint x="70" y="360" as="sourcePoint" />
            <mxPoint x="120" y="310" as="targetPoint" />
          </mxGeometry>
        </mxCell>
        <mxCell id="El3InNLgVGE8vZLJ8Fgj-8" value="" style="endArrow=none;html=1;rounded=0;entryX=0.5;entryY=1;entryDx=0;entryDy=0;exitX=0.5;exitY=0;exitDx=0;exitDy=0;" edge="1" parent="1" source="El3InNLgVGE8vZLJ8Fgj-5" target="El3InNLgVGE8vZLJ8Fgj-4">
          <mxGeometry width="50" height="50" relative="1" as="geometry">
            <mxPoint x="150" y="560" as="sourcePoint" />
            <mxPoint x="200" y="510" as="targetPoint" />
          </mxGeometry>
        </mxCell>
        <mxCell id="El3InNLgVGE8vZLJ8Fgj-9" value="" style="endArrow=none;html=1;rounded=0;entryX=0.5;entryY=1;entryDx=0;entryDy=0;exitX=0.5;exitY=0;exitDx=0;exitDy=0;" edge="1" parent="1" source="El3InNLgVGE8vZLJ8Fgj-4" target="El3InNLgVGE8vZLJ8Fgj-3">
          <mxGeometry width="50" height="50" relative="1" as="geometry">
            <mxPoint x="100" y="450" as="sourcePoint" />
            <mxPoint x="150" y="400" as="targetPoint" />
          </mxGeometry>
        </mxCell>
      </root>
    </mxGraphModel>
  </diagram>
</mxfile>
